<svg xmlns="http://www.w3.org/2000/svg" width="256" height="256" viewBox="0 0 256 256" xml:space="preserve"><g style="stroke:none;stroke-width:0;stroke-dasharray:none;stroke-linecap:butt;stroke-linejoin:miter;stroke-miterlimit:10;fill:none;fill-rule:nonzero;opacity:1" transform="translate(1.407 1.407)scale(2.81)"><linearGradient id="a" gradientUnits="userSpaceOnUse" x1="44.348" y1="16.53" x2="42.921" y2="8.538"><stop offset="0%" style="stop-color:#ce9918;stop-opacity:1"/><stop offset="59.02%" style="stop-color:#df9e00;stop-opacity:1"/></linearGradient><path d="m34.429 12.182-3.618-3.93a5.72 5.72 0 0 0-4.208-1.846H2.438A2.437 2.437 0 0 0 0 8.844V25.75l.121.013a2.845 2.845 0 0 1 2.733-2.074h22.99c3.267 0 6.442-1.43 8.377-4.063a10.57 10.57 0 0 1 8.515-4.309h44.41A2.854 2.854 0 0 1 90 18.171v-3.354a2.323 2.323 0 0 0-2.323-2.323H35.143a.97.97 0 0 1-.714-.312" style="stroke:none;stroke-width:1;stroke-dasharray:none;stroke-linecap:butt;stroke-linejoin:miter;stroke-miterlimit:10;fill:url(#a);fill-rule:nonzero;opacity:1"/><linearGradient id="b" gradientUnits="userSpaceOnUse" x1="62.876" y1="69.664" x2="25.487" y2="26.567"><stop offset="0%" style="stop-color:#f5b509;stop-opacity:1"/><stop offset="100%" style="stop-color:#fece49;stop-opacity:1"/></linearGradient><path d="M34.313 18.71a10.57 10.57 0 0 1-8.423 4.186H2.854A2.854 2.854 0 0 0 0 25.751V80.74a2.854 2.854 0 0 0 2.854 2.854h84.292A2.854 2.854 0 0 0 90 80.74V17.378a2.854 2.854 0 0 0-2.854-2.854h-44.41a10.57 10.57 0 0 0-8.423 4.186" style="stroke:none;stroke-width:1;stroke-dasharray:none;stroke-linecap:butt;stroke-linejoin:miter;stroke-miterlimit:10;fill:url(#b);fill-rule:nonzero;opacity:1"/><linearGradient id="c" gradientUnits="userSpaceOnUse" x1="66.058" y1="81.144" x2="10.973" y2="54.886"><stop offset="0%" style="stop-color:#0161b2;stop-opacity:1"/><stop offset="100%" style="stop-color:#1291dd;stop-opacity:1"/></linearGradient><path d="M66.834 55.053H23.166a9.67 9.67 0 0 0-9.672 9.672v18.869h63.013V64.725c-.001-5.342-4.331-9.672-9.673-9.672" style="stroke:none;stroke-width:1;stroke-dasharray:none;stroke-linecap:butt;stroke-linejoin:miter;stroke-miterlimit:10;fill:url(#c);fill-rule:nonzero;opacity:1"/><path d="M63.552 73.306H26.448a2 2 0 0 1 0-4h37.104a2 2 0 0 1 0 4" style="stroke:none;stroke-width:1;stroke-dasharray:none;stroke-linecap:butt;stroke-linejoin:miter;stroke-miterlimit:10;fill:#10498a;fill-rule:nonzero;opacity:1"/></g></svg>